<?xml version="1.0" standalone="no"?>
<!DOCTYPE svg PUBLIC "-//W3C//DTD SVG 1.1//EN" "http://www.w3.org/Graphics/SVG/1.1/DTD/svg11.dtd" >
<svg xmlns="http://www.w3.org/2000/svg" xmlns:xlink="http://www.w3.org/1999/xlink" version="1.1">
<metadata>
Created by FontForge 20170731 at Sat Jan 18 19:26:53 2014
 By Aleksey,,,
</metadata>
<defs>
<font id="aurora" horiz-adv-x="582" >
  <font-face 
    font-family="aurora"
    font-weight="400"
    font-stretch="normal"
    units-per-em="512"
    panose-1="2 0 5 9 0 0 0 0 0 0"
    ascent="480"
    descent="-32"
    x-height="511"
    cap-height="511"
    bbox="19 -3 550 512"
    underline-thickness="0"
    underline-position="0"
    unicode-range="U+0030-007A"
  />
<missing-glyph horiz-adv-x="512" 
 />
    <glyph glyph-name=".notdef" horiz-adv-x="512" 
 />
    <glyph glyph-name=".null" horiz-adv-x="0" 
 />
    <glyph glyph-name="nonmarkingreturn" horiz-adv-x="512" 
 />
    <glyph glyph-name="zero" unicode="0" 
d="M32 397l13 13zM94 459l-18 -18l-31 -31l31 31zM32 361v26v-274v248zM544 398l-13 12l-31 32l-19 18zM157 486l-87 -87zM544 114l-13 -13zM419 25l86 86zM481 51l18 18l32 32l-32 -32zM32 113l13 -13l31 -31l18 -18l-18 18zM544 150v248l-44 44l-19 18l-25 26l-26 25h-284
l-52 -52l-18 -18l-31 -31l-13 -13v-10v-274l113 -114h285l51 52l18 18l32 32l13 13v10v26zM518 137v-13l-13 -13l-86 -86h-263l-44 44l-18 18l-37 37v262l13 13l87 87h262l44 -44l18 -19l37 -36v-250zM301 16v479h-26v-479h26zM531 387h-250v-26h250v26zM294 149h-249v-25
h249v25z" />
    <glyph glyph-name="one" unicode="1" horiz-adv-x="560" 
d="M536 510h-512v-25h350v-125l-86 -87l-18 -18l18 -18l86 -86v-151h162v26l1 -1l-136 136v189l136 135h-1v25zM374 187l-68 68l68 69v-137zM500 26h-99v99zM401 386v99h99z" />
    <glyph glyph-name="two" unicode="2" horiz-adv-x="587" 
d="M62 243v-244h-25v244h25zM194 243v-244h-26v244h26zM406 499v-244h-26v244h26zM281 -1h-244v26h244v-26zM37 268h486v118l-37 37l-3 4l-15 14l-3 4l-41 41h-262l-125 -125v36l114 114h283l115 -114v-154h-487v-116h-25v141zM424 25l125 125v-36l-115 -115h-266v26h256z
" />
    <glyph glyph-name="three" unicode="3" horiz-adv-x="565" 
d="M541 510h-397l-25 -25l-88 -88v-36l124 124h226v-125l-87 -87l-19 -18l19 -18l87 -86v-125h-227l-123 123v-36l87 -88l25 -25h398v26l1 -1l-136 136v188l136 136h-1v25zM505 26h-99v99zM381 187l-69 68l69 69v-137zM406 386v99h99z" />
    <glyph glyph-name="four" unicode="4" horiz-adv-x="581" 
d="M515 510v-164h-373v127l13 12h16v25h-27l-113 -113v-154l24 -1h460v1v-243h26v510h-26zM56 268v119l60 60v-179h-60zM142 268v53h373v-53h-373z" />
    <glyph glyph-name="five" unicode="5" horiz-adv-x="587" 
d="M62 298v200h-25v-200h25zM194 267v244h-26v-244h26zM406 12v244h-26v-244h26zM281 511h-244v-25h244v25zM37 243h486v-119l-99 -99h-262l-125 125v-36l114 -115h283l115 115v154h-487v115h-25v-140zM424 486l125 -125v36l-115 114h-266v-25h256z" />
    <glyph glyph-name="six" unicode="6" 
d="M419 486l41 -41l3 -4l15 -14l3 -4l63 -62v36l-45 44l-3 4l-15 14l-3 4l-23 23l-26 25h-283l-26 -25l-22 -23l-18 -18l-4 -4l-19 -18l-25 -26v-154h361v-218h-236l-41 40l-4 4l-14 14l-4 4l-62 63v-36l44 -45l4 -4l14 -14l4 -4l22 -22l26 -26h283l26 26l22 22l4 4l14 14
l4 4l19 19l26 26v154h-362v218h237zM518 124l-37 -37l-4 -4l-14 -14l-4 -4l-40 -40v218h99v-119zM157 268h-100v118l37 37l4 4l14 14l4 4l41 41v-218zM32 368v-244h25v244h-25z" />
    <glyph glyph-name="seven" unicode="7" horiz-adv-x="566" 
d="M542 25h-1h1l-136 136v189l136 135l-1 1h1v25h-398l-26 -25l-88 -89v-36l125 125h225v-126l-87 -87l-18 -18l18 -18l87 -86v-152h162v26zM380 187l-69 68l69 69v-137zM406 386v100h99zM505 25h-99v100z" />
    <glyph glyph-name="eight" unicode="8" horiz-adv-x="579" 
d="M30 361v1v-1zM529 410l-32 31l44 -43zM417 486zM57 122l35 -35l18 -18l-18 18zM417 25zM110 442l-18 -19l-35 -34l35 34zM529 101l12 12l-44 -44zM453 25l-26 -25h1l25 25l26 26zM30 149zM516 387v-14l-99 -100l-18 -18l18 -18l99 -99v-14l-2 -2l27 27l-25 25l-81 81
l81 81l25 26l-27 27zM453 486l26 -27l-26 27l-25 25h-1zM43 410l-13 -12l44 43zM43 101l31 -32l-44 44zM155 486h-1h1zM55 124v14l100 99l18 18l-18 18l-100 100v14l2 2l-27 -27l107 -107l-82 -81l-25 -25l27 -27zM118 25l-26 26l26 -26l26 -25zM154 25h1h-1zM118 486l26 25
l-26 -25l-26 -27zM461 69l18 18l35 35l-35 -35zM514 389l-35 34l-18 19l18 -19zM541 398l-44 43l-18 18l-26 27l-26 25h-283l-26 -25l-26 -27l-18 -18l-44 -43v-1v-35l27 27l35 34l18 19l44 44h263l44 -44l18 -19l35 -34l27 -27h1v35zM479 87l-18 -18l-44 -44h-263l-44 44
l-18 18l-35 35l-27 27v-35v-1l44 -44l18 -18l26 -26l26 -25h283l26 25l26 26l18 18l44 44l1 1v35h-1l-27 -27zM144 243h283v25h-283v-25zM233 255v249h-26v-249h26zM364 7v248h-25v-248h25z" />
    <glyph glyph-name="nine" unicode="9" horiz-adv-x="581" 
d="M156 25l-41 41l-4 3l-14 15l-4 3l-62 63v-36l44 -45l4 -3l14 -15l26 -26l26 -26h283l26 26l23 23l3 3l15 15l3 3l19 19l26 26v154h-362v218h237l40 -41l4 -4l14 -14l4 -4l63 -62v36l-45 44l-4 4l-14 14l-4 4l-22 23l-26 25h-283l-26 -25l-22 -23l-4 -4l-14 -14l-4 -4
l-19 -18l-25 -26v-154h361v-218h-236zM56 386l37 37l4 4l14 14l4 4l41 41v-218h-100v118zM418 243h99v-119l-37 -37l-3 -3l-15 -15l-3 -3l-41 -41v218zM543 143v243h-26v-243h26z" />
    <glyph glyph-name="A" unicode="A" 
d="M520 423l-26 26l-18 18l-32 31l-13 12h-284l-12 -12l-31 -31l-19 -18l-26 -26h1l-25 -25v-284l25 -26l26 -26l18 -18l44 -44h36l-62 62l-18 18l-44 44v159h459v-159l-43 -44l-18 -18l-62 -62h36l44 44l18 18l26 26l25 25v284zM60 387l44 44l18 18l36 36h250v-176h-348v78
zM434 309v164l24 -24l17 -18l44 -45v-77h-85z" />
    <glyph glyph-name="B" unicode="B" horiz-adv-x="583" 
d="M436 210v-1v1zM547 124v25l-107 106l81 81l26 26v36h-1l-12 12l-50 50l-25 26l-26 25h-284l-26 -25l-26 -27l-18 -18l-44 -44v-36l62 62l18 18l45 45h31v-461h-32l-44 44l-18 18l-62 62v-36l44 -44l18 -18l26 -26l25 -26h285l25 26l26 26l18 18l32 32l12 12l1 1v10z
M422 486l44 -44l18 -19l37 -36v-14l-99 -100l-18 -18l18 -18l99 -99v-1h-304v349h205zM484 87l-18 -18l-44 -44h-205v86h291z" />
    <glyph glyph-name="C" unicode="C" horiz-adv-x="584" 
d="M145 301h1v1zM458 25l26 26l18 18l45 45v36l-125 -125h-247v461h247l44 -44l18 -19l63 -62v37l-44 44l-19 18l-25 26l-26 25h-284l-26 -25l-26 -27l-18 -18l-31 -31l-13 -13v-10v-274l13 -13l100 -101h285zM97 423l18 18l35 35v-77h-77zM115 69l-18 18l-37 37v250h90
v-340z" />
    <glyph glyph-name="D" unicode="D" 
d="M435 210v-1v1zM533 410l-32 32l-18 18l-25 26v-1l-26 25h-284l-26 -25l-26 -26l-17 -18l-44 -44v-36l62 62l18 18l44 44h31v-459h-32l-44 43l-18 18l-61 62v-36l43 -44l18 -18l26 -26l25 -25h285l25 25l26 26l18 18l31 32l13 13v284zM421 485l44 -44l18 -18l36 -36v-250
h-303v348h205zM483 87l-18 -17l-44 -44h-205v85h291z" />
    <glyph glyph-name="E" unicode="E" horiz-adv-x="568" 
d="M407 485l124 -124v37l-88 87l-25 25h-397v-25h-1l136 -136v-188l-136 -136v1h1v-26h396l26 25l88 89v36l-124 -124h-226v125l87 86l18 18l-18 18l-87 87v125h226zM156 26h-100l100 99v-99zM250 255l-69 -68v137zM156 386l-100 99h100v-99z" />
    <glyph glyph-name="F" unicode="F" horiz-adv-x="573" 
d="M415 486l125 -124v36l-88 89l-26 25h-398v-26l-1 1l136 -136v-81h-135v-28h135v-81l-136 -136l1 1v-26h162v151l87 86l5 5h232v28h-232l-5 5l-87 86v125h225zM163 26h-99l99 99v-99zM64 486h99v-99zM190 188v54h55zM245 270h-55v54z" />
    <glyph glyph-name="G" unicode="G" 
d="M97 423l17 18l45 44h262l44 -44l18 -18l62 -62v37l-44 43l-18 18l-25 26l-26 25h-284l-26 -25l-26 -26l-18 -18l-31 -31l-12 -13v-284l12 -13l31 -31l18 -18l26 -25l25 -26h284l26 26l26 25l18 18l44 45v142h-256v-26h106v-204h-237l-44 43l-18 18l-36 37v262zM519 230
v-106l-36 -37l-18 -18l-45 -44v205h99z" />
    <glyph glyph-name="H" unicode="H" horiz-adv-x="584" 
d="M405 -1h27l26 26l26 26l18 18l32 32l13 13v284l-13 12l-31 31l-19 19l-25 26l-26 25h-28v-243h-345v118l37 37l18 18l45 45h16v25h-27l-26 -25l-26 -27l-18 -18l-31 -31l-13 -13v-284l13 -13l31 -31l18 -18l26 -26l25 -26h28v243h345v-118l-37 -37l-18 -18l-44 -44h-17
v-26zM431 386v91l35 -36l18 -18l37 -36v-1h-90zM431 268v93h90v-93h-90zM150 124v-90l-53 53l-37 37h90zM150 150h-90v92h90v-92z" />
    <glyph glyph-name="I" unicode="I" 
d="M546 370v27l-26 26l-26 26l-18 18l-32 31l-13 13h-10h-119h-25h-130l-12 -13l-31 -31l-19 -18l-26 -26l-25 -25v-2v-26h243v-345h-118l-37 37l-63 62v17h-25v-27l25 -26l27 -26l18 -18l31 -32l13 -13h10h119h25h130l13 13l31 31l18 19l26 25l26 26v28h-26v-17l-44 -44
l-18 -18l-37 -37h-119v461h119l37 -37l18 -18l44 -45v-16h26zM104 431l18 18l36 37h1v-90h-91zM184 396v90h93v-90h-93z" />
    <glyph glyph-name="J" unicode="J" horiz-adv-x="566" 
d="M541 511h-356v-25h194v-126l-87 -87l-18 -18l18 -18l87 -86v-126h-225l-125 125v-36l88 -89l26 -26h398v26h-1h1l-136 136v189l136 135l-1 1h1v25zM379 187l-69 68l69 69v-137zM504 25h-99v100zM405 386v100h99z" />
    <glyph glyph-name="K" unicode="K" horiz-adv-x="573" 
d="M479 431l18 18l51 52v10h-25l-44 -44l-18 -18l-176 -175v-1l-18 -17v-1l-90 -90h-115v346h-25v-512h10l140 140h196l140 -140h25v11l-245 245zM62 51v88h89zM358 165h-145l72 72z" />
    <glyph glyph-name="L" unicode="L" horiz-adv-x="566" 
d="M408 25h-225v126l86 86l18 18l-18 18l-86 87v151h-162v-25v-1l136 -135v-189l-136 -136v-26h397l26 26l89 89v36zM183 324l68 -69l-68 -68v137zM57 486h100v-100zM157 125v-100h-100z" />
    <glyph glyph-name="M" unicode="M" horiz-adv-x="586" 
d="M521 510v1h1l-136 -136h-188l-136 136v-1h-25v-396l25 -26l88 -88h36l-124 124v226h125l87 -87l18 -18l18 18l86 87h125v-226l-123 -124h36l88 88l25 25v397h-26zM62 375v100l99 -100h-99zM292 281l-69 69h137zM422 375l99 100v-100h-99z" />
    <glyph glyph-name="N" unicode="N" horiz-adv-x="588" 
d="M523 423l-26 26l-18 18l-45 44h-36l63 -62l18 -18l44 -45v-343l-461 460v8h-25v-397l25 -26l27 -26l18 -18l44 -45h36l-62 63l-18 18l-45 44v200h143l318 -318v-7h26v398zM62 350v117l118 -117h-118z" />
    <glyph glyph-name="O" unicode="O" horiz-adv-x="584" 
d="M547 124v274l-13 12l-31 32l-19 18l-25 26l-26 25h-284l-26 -25l-26 -27l-18 -18l-44 -44v-284l113 -114h285l25 26l26 26l18 18l32 32l13 13v10zM422 486l44 -44l18 -19l37 -36v-250h-304v349h205zM115 69l-18 18l-37 37v262l55 55l45 45h31v-461h-32zM484 87l-18 -18
l-44 -44h-205v86h291z" />
    <glyph glyph-name="P" unicode="P" horiz-adv-x="586" 
d="M524 422l-26 27l-18 18l-31 31l-13 13h-11h-12h-26h-236l-13 -13l-31 -31l-18 -18l-26 -26l-26 -26v-399h26v256h487v143zM63 280v107l44 44l18 18l37 36h225v-205h-324zM524 280h-111v205h12l37 -36l18 -18l44 -45v-106z" />
    <glyph glyph-name="Q" unicode="Q" horiz-adv-x="586" 
d="M146 302l-1 -1h1v1zM503 442l-18 18l-26 26l-25 26h-285l-26 -26l-26 -26l-18 -18l-31 -31l-13 -13v-285l12 -13l32 -31l18 -19l26 -26l25 -26h285l26 26l23 23l47 -47h18v18l-47 47l3 4l44 44v285zM364 24h-205l-44 44l-18 19l-36 36v251h303v-350zM364 399h-291l24 24
l18 19l44 44h205v-87zM521 124l-36 -37l-18 -18l-44 -45h-33v462h33l44 -44l18 -18l36 -37v-263z" />
    <glyph glyph-name="R" unicode="R" horiz-adv-x="583" 
d="M486 62l-18 18l-26 26l-18 18v130h123v143l-26 26l-25 26l-18 18l-32 31l-13 12h-284l-12 -12l-31 -31l-18 -18l-26 -26l-25 -25v-398h25v254h229v-34l26 -26l26 -26l18 -18l45 -44l18 -18l26 -26l18 -18l44 -44h36zM62 387l44 44l18 18l36 36h263l37 -37l17 -17l44 -45
v-106h-459v107zM361 186l-44 44v24h82v-104l-19 18z" />
    <glyph glyph-name="S" unicode="S" horiz-adv-x="584" 
d="M422 486l41 -41l3 -4l15 -14l3 -4l63 -62v36l-45 44l-3 4l-15 14l-3 4l-23 23l-26 25h-283l-26 -25l-22 -23l-18 -18l-4 -4l-19 -18l-25 -26v-154h361v-218h-236l-41 40l-4 4l-14 14l-4 4l-62 63v-36l44 -45l4 -4l14 -14l4 -4l22 -22l26 -26h283l26 26l22 22l4 4l14 14
l4 4l19 19l26 26v154h-362v218h237zM521 124l-37 -37l-4 -4l-14 -14l-4 -4l-40 -40v218h99v-119zM160 268h-100v118l37 37l4 4l14 14l4 4l41 41v-218z" />
    <glyph glyph-name="T" unicode="T" horiz-adv-x="575" 
d="M516 423l-26 26l-18 18l-31 31l-13 13h-284l-12 -13l-32 -31l-18 -18l-26 -26l-25 -25v-2v-26h242v-370h26v486h118l37 -37l18 -18l44 -44v-17h26v27zM100 431l18 18l37 37h1v-90h-91zM181 396v90h92v-90h-92z" />
    <glyph glyph-name="U" unicode="U" horiz-adv-x="584" 
d="M245 110zM521 423l-26 26l-18 18l-45 44h-36l63 -62l18 -18l44 -45v-246h-461v247l45 44l18 18l62 62h-37l-88 -88l-25 -25v-285l25 -25l27 -26l18 -18l31 -32l13 -13h10h274l13 13l31 31l18 19l26 25l26 26v284zM123 62l-18 18l-35 34h77v-76zM477 80l-18 -18l-37 -37
h-250v89h340z" />
    <glyph glyph-name="V" unicode="V" horiz-adv-x="580" 
d="M243 110h-1h1zM519 423l-26 26l-18 18l-44 44h-37l63 -62l18 -18l44 -45v-120l-126 -126h-208l-34 33v306l32 32h-37l-43 -44l-19 -18l-26 -26l-25 -25v-143l25 -25l90 -90l13 -13l9 -9l4 -4l89 -89l8 -7l18 -19l18 19l7 7l89 89l26 26l90 90l26 25v142zM125 199l-67 67
v121l45 44l18 18l4 5v-255zM289 36l-79 78h157z" />
    <glyph glyph-name="W" unicode="W" horiz-adv-x="586" 
d="M522 422l-89 88h-36l124 -124v-226h-125l-86 87l-18 19l-18 -19l-87 -87h-126v226l125 124h-37l-87 -87l-25 -25v-398h25v-1l136 136h188l136 -136l-1 1h26v397zM61 35v100h100zM223 160l69 69l68 -69h-137zM422 135h99v-99z" />
    <glyph glyph-name="X" unicode="X" horiz-adv-x="573" 
d="M527 410l-32 31l-3 4l-15 15l-3 3l-22 23v-1l-26 25h-36l25 -25l41 -40l-172 -172l-238 237h-17v-17l47 -48l69 -69v-242l-51 -51l-4 4l-61 62v-36l43 -44l4 -4l18 -18l22 -22l25 -25h36l-65 65l172 172l189 -190h1l48 -47h17v18l-237 237l171 172l41 -40l25 -26v37z
M170 160v82h83zM170 268v83l83 -83h-83z" />
    <glyph glyph-name="Y" unicode="Y" horiz-adv-x="553" 
d="M504 511v-35l-126 -126h-91v161h-26v-161h-91l-33 34v127h-26v-102l-67 67v35h-25v-46l25 -25l90 -90l13 -13l9 -8l4 -4l89 -89l7 -8l5 -5v-223h26v223l5 5l8 8l89 89l25 25l90 90l26 25v46h-26zM196 325h65v-66zM287 259v66h66z" />
    <glyph glyph-name="Z" unicode="Z" horiz-adv-x="579" 
d="M121 486l-26 -27l-18 -18l-44 -44v-36l62 62l18 18l45 45h343l-460 -461h-8v-26h397l26 26l26 26l18 18l45 45v36l-63 -63l-18 -18l-44 -44h-200v143l318 318h7v25h-398zM195 25h-118l118 118v-118z" />
    <glyph glyph-name="a" unicode="a" 
d="M335 409h1l-1 1v-1zM520 423l-26 26l-18 18l-32 31l-13 12h-284l-12 -12l-31 -31l-19 -18l-26 -26h1l-25 -25v-284l25 -26l26 -26l18 -18l44 -44h36l-62 62l-18 18l-44 44v118h459v-118l-43 -44l-18 -18l-62 -62h36l44 44l18 18l26 26l25 25v284zM60 268v119l44 44l18 18
l36 36h263l37 -37l17 -17l44 -45v-118h-459z" />
    <glyph glyph-name="b" unicode="b" horiz-adv-x="583" 
d="M436 256v-1v1zM436 256v-1v1zM547 362v35l-1 1l-12 12l-32 31l-18 18l-26 27l-25 25h-284l-26 -25l-26 -27l-18 -18l-44 -44v-36l62 62l18 19l44 44h32v-461h-32l-44 44l-18 18l-62 62v-35l44 -45l18 -18l26 -26l26 -25h284l25 25l26 26l18 18l32 32l12 12l1 1v35l-26 25
l-81 81l81 81zM422 237l99 -99v-14l-37 -37l-18 -18l-44 -44h-205v461h205l44 -44l18 -19l37 -36v-14l-99 -100l-18 -18z" />
    <glyph glyph-name="c" unicode="c" horiz-adv-x="584" 
d="M146 301h-1h1zM503 442l-19 18l-25 26l-26 25h-285l-25 -25l-26 -26l-18 -19l-31 -31l-13 -12v-285l13 -13l31 -31l18 -18l26 -26l25 -26h285l26 26l25 26l19 18l44 44v37l-26 -26l-37 -37l-18 -18l-34 -34l-10 -10h-263l-44 44l-18 18l-37 37v263l37 36l18 19l44 44h263
l44 -45l18 -18l63 -62l-63 62l37 -36l26 -26v37zM97 459l-9 -9zM48 410l17 17l-7 -7zM523 420l-21 21l-9 9l9 -9l26 -26zM146 209v1h-1z" />
    <glyph glyph-name="d" unicode="d" 
d="M435 255v1v-1zM533 410l-32 32l-18 18l-25 26v-1l-26 25h-284l-26 -25l-26 -26l-17 -18l-44 -44v-36l62 62l18 18l44 44h31v-459h-32l-44 43l-18 18l-61 62v-36l43 -44l18 -18l26 -26l25 -25h285l25 25l26 26l18 18l31 32l13 13v284zM519 124l-36 -37l-18 -17l-44 -44
h-205v459h205l44 -44l18 -18l36 -36v-263z" />
    <glyph glyph-name="e" unicode="e" horiz-adv-x="571" 
d="M22 486v-1l230 -230l-230 -230v-26h397l26 26l89 89v36l-125 -125h-351l212 212l18 18l-18 18l-212 213h351l125 -125v37l-88 88l-26 25h-398v-25z" />
    <glyph glyph-name="f" unicode="f" horiz-adv-x="583" 
d="M460 486l-25 26h-398v-512h162v46h-25v-20h-101h-10v216h230v26h-230v218h361l125 -124v36z" />
    <glyph glyph-name="g" unicode="g" 
d="M97 423l17 18l45 44h262l44 -44l18 -18l62 -62v37l-44 43l-18 18l-25 26l-26 25h-284l-26 -25l-26 -26l-18 -18l-31 -31l-12 -13v-284l12 -13l31 -31l18 -18l26 -25l25 -26h284l26 26l26 25l18 18l44 45v142h-256v-26h230v-106l-36 -37l-18 -17l-44 -44h-263l-44 43
l-18 18l-36 37v262z" />
    <glyph glyph-name="h" unicode="h" horiz-adv-x="584" 
d="M123 25l-26 26l-18 18l-31 32l-13 13v-1l13 -13l31 -31l18 -18l26 -26l25 -26h28h-27zM115 441l35 35v1l-35 -36l-18 -18l-37 -36v-1zM431 242h90h-90zM534 410l-31 31l-44 45l-26 25l25 -25l26 -27l18 -18l32 -31l13 -13v1zM466 69l-35 -35l35 35l18 18l37 37l-37 -37z
M431 268h90h-90zM484 423l37 -37v1l-37 36l-18 18l-35 36v-1l35 -35zM432 511h1h-1h-27h27zM79 441l18 18l26 27l26 25h27h-28l-25 -25l-26 -26l-18 -19l-31 -31l-13 -12v-1l13 13zM502 69l-18 -18l-26 -26l-25 -26l26 26l25 26l19 18l31 31l13 13v1l-13 -13zM97 87l-37 37
l37 -37l18 -18l35 -35l-35 35zM502 441l-18 18l-26 27l-25 25h-28v-25h17l9 -10v1l35 -36l18 -18l37 -36v-119h-90h-26h-345v119l37 36l18 18l35 36v-1l10 10h16v25h-27l-26 -25l-26 -27l-18 -18l-31 -31l-13 -13v-283l13 -13l31 -32l18 -18l26 -26l26 -26h27v26h-16l-10 9
l-35 35l-18 18l-37 37v118h345h26h90v-118l-37 -37l-18 -18l-35 -35l-9 -9h-17v-26h28l25 26l26 26l18 18l32 32l13 13v283l-13 13z" />
    <glyph glyph-name="i" unicode="i" 
d="M104 80l-45 44v17v-17zM86 62l-13 13l13 -13l18 -18l31 -32l-31 32zM546 370v27l-26 26l-13 13l13 -13l26 -26v-27h-26h26zM122 62l37 -37zM546 114v-1l-26 -26l26 26v2v-1zM432 -1l13 13l31 31l-31 -31zM494 62l-18 -19l18 19l26 25zM421 511zM458 449l-37 37zM494 449
l13 -13l-13 13l-18 18l-32 31zM147 511l-12 -13l-31 -31l31 31zM85 449l19 18l-19 -18l-26 -26zM476 431l44 -45v-16v16zM34 113v28h25h-25v-28l39 -38l-14 13zM34 397v1l25 25l-25 -25v-2v1zM546 397l-26 26l-13 13l-13 13l-63 62h-10h-119h-25h-130l-12 -13l-31 -31
l-19 -18l-26 -26l-25 -25v-2v-26h25v17l45 44l18 18l36 37h119v-461h-118l-37 37l-18 18l-45 44v17h-25v-28l25 -25l14 -13l13 -13l18 -18l31 -32l13 -13h10h119h25h130l13 13l31 31l18 19l26 25l26 26v2v26h-26v-17l-44 -44l-18 -18l-37 -37h-119v461h119l37 -37l18 -18
l44 -45v-16h26v27z" />
    <glyph glyph-name="j" unicode="j" horiz-adv-x="579" 
d="M404 510h-27v-51h27v27l109 -1v-460l-128 1h-201v-1l-31 1l-124 124v-36l88 -89l25 -25h398h-1v510h-135z" />
    <glyph glyph-name="k" unicode="k" horiz-adv-x="573" 
d="M479 431l18 18l51 52v10h-25l-44 -44l-18 -18l-176 -175v-1l-18 -17v-1l-205 -204v460h-25v-512h10l238 238l238 -238h25v11l-245 245z" />
    <glyph glyph-name="l" unicode="l" 
d="M63 506h-26v-488h26v488zM173 486v-28h26v53h-162v-25v-1zM424 25h-387v-26h397l26 26l89 89v36z" />
    <glyph glyph-name="m" unicode="m" horiz-adv-x="588" 
d="M523 511l-230 -230l-230 230h-1h-25v-397l25 -26l89 -89h36l-125 125v351l213 -212l18 -18l18 18l212 212v-351l-124 -125h36l88 88l26 26v398h-26z" />
    <glyph glyph-name="n" unicode="n" horiz-adv-x="588" 
d="M523 423l-26 26l-18 18l-45 44h-36l63 -62l18 -18l44 -45v-343l-461 460v8h-25v-397l25 -26l27 -26l18 -18l44 -45h36l-62 63l-18 18l-45 44v343l461 -461v-7h26v398z" />
    <glyph glyph-name="o" unicode="o" horiz-adv-x="584" 
d="M458 29l-25 -25zM459 486l-26 25zM35 361v26v-274v248zM123 486l13 12zM97 459l-18 -18l-31 -31l31 31zM160 486l-87 -87zM547 398l-13 12l-31 32l-19 18l19 -18zM35 397l13 13zM547 114l-13 -13zM149 511l-13 -13zM484 51l18 18l32 32l-32 -32zM35 113l13 -13l31 -31
l18 -18l-18 18zM97 51l26 -26l25 -26zM422 25l86 86zM547 150v248l-114 113h-284l-52 -52l-18 -18l-31 -31l-13 -13v-10v-274l44 -44l44 -44l25 -25h285l25 25l26 26l18 18l32 32l13 13v10v26zM521 137v-13l-13 -13l-86 -86h-263l-99 99v262l13 13l87 87h262l99 -99v-250z
" />
    <glyph glyph-name="p" unicode="p" horiz-adv-x="585" 
d="M523 423l-26 26l-18 18l-31 31l-13 13h-11h-12h-25h-236l-13 -13l-31 -31l-18 -18l-26 -26l-26 -26v-398h26v256h486v142zM523 281h-460v106l44 44l18 18l36 37h263l37 -37l18 -18l44 -45v-105z" />
    <glyph glyph-name="q" unicode="q" horiz-adv-x="588" 
d="M532 0h18v18l-48 49l2 2l45 44v285l-45 44l-18 18l-26 26l-26 26h-285l-25 -26l-26 -26l-19 -18l-44 -44v-285l44 -45l18 -18l26 -26l26 -26h285l26 26l24 25zM468 69l-45 -45h-263l-45 44l-18 19l-36 36v264l13 12l24 24l18 19l44 44h264l44 -44l18 -18l37 -37v-263
l-13 -13l-24 -24z" />
    <glyph glyph-name="r" unicode="r" horiz-adv-x="585" 
d="M487 62l-18 18l-26 26l-19 18l-25 26l-18 18l-18 18l-45 44v25h231v142l-26 26l-26 26l-18 18l-32 31l-13 13h-10h-274l-12 -13l-31 -31l-19 -18l-26 -26l-25 -25v-399h25v256h231v-35l51 -52l19 -18l44 -44l17 -18l27 -26l18 -18l44 -45h36zM62 387l45 44l18 18l36 37
h263l37 -37l18 -18l44 -45v-105h-461v106z" />
    <glyph glyph-name="s" unicode="s" horiz-adv-x="584" 
d="M422 486l125 -125v36l-115 114h-283l-114 -114v-154h486v-119l-37 -37l-4 -4l-14 -14l-4 -4l-40 -40h-262l-125 125v-36l114 -115h283l115 115v154h-487v118l37 37l4 4l14 14l4 4l41 41h262z" />
    <glyph glyph-name="t" unicode="t" horiz-adv-x="575" 
d="M274 301v-90v90zM274 441v-370v370zM542 397v1l-114 114h-283l-114 -114v-2v-26h25v17l99 99h119v-486h25v486h119l99 -99v-17h25v26v1z" />
    <glyph glyph-name="u" unicode="u" horiz-adv-x="584" 
d="M245 110zM104 467l-18 -18l-26 -26l-25 -25v-285l25 -26l45 -44l31 -31l12 -13h285l13 13l31 31l18 19l26 25l26 26v285l-26 25l-26 26l-18 18l-44 44h-37l26 -25l37 -37l18 -18l34 -35l10 -10v-262l-44 -44l-18 -18l-37 -37h-263l-36 37l-19 18l-44 44v262l45 45l18 18
l62 62l-62 -62l36 37l26 25h-37zM87 62l9 -9zM136 12l-17 18l7 -7zM126 488l-21 -21l-9 -9l9 9l26 26zM337 110h-1h1z" />
    <glyph glyph-name="v" unicode="v" horiz-adv-x="581" 
d="M243 255v1h-1zM431 511h-37l125 -125v-120l-230 -230l-231 230v121l125 124h-37l-113 -113v-143l256 -256l256 256v142z" />
    <glyph glyph-name="w" unicode="w" horiz-adv-x="588" 
d="M62 -1v1l1 -1l230 231l230 -231v1v-1h26v398l-26 26l-89 88h-36l125 -125v-350l-212 212l-18 18l-18 -18l-213 -212v351l125 124h-37l-88 -88l-25 -25v-399h25z" />
    <glyph glyph-name="x" unicode="x" horiz-adv-x="576" 
d="M428 511h-36l66 -66l-172 -172l-238 238h-18v-18l238 -238l-172 -172l-66 66v-36l113 -114h36l-65 66l172 172l238 -238h18v18l-238 238l172 172l66 -66v37z" />
    <glyph glyph-name="y" unicode="y" horiz-adv-x="556" 
d="M507 511v-35l-218 -219h-26l-218 219v35h-26v-46l244 -244v-224h26v224l244 244v46h-26z" />
    <glyph glyph-name="z" unicode="z" horiz-adv-x="579" 
d="M77 25l461 461h7v25h-398l-114 -114v-36l125 125h343l-460 -461h-8v-26h397l115 115v36l-125 -125h-343z" />
  </font>
</defs>
</svg>
